<?xml version="1.0" standalone="no"?>
<!DOCTYPE svg PUBLIC "-//W3C//DTD SVG 1.1//EN" "http://www.w3.org/Graphics/SVG/1.1/DTD/svg11.dtd" >
<svg xmlns="http://www.w3.org/2000/svg">
<metadata>
<json>
<![CDATA[
{
	"fontFamily": "common",
	"majorVersion": 1,
	"minorVersion": 5,
	"version": "Version 1.5",
	"fontId": "common",
	"psName": "common",
	"subFamily": "Regular",
	"fullName": "common",
	"description": "Font generated by IcoMoon."
}
]]>
</json>
</metadata>
<defs>
<font id="common" horiz-adv-x="1024">
<font-face units-per-em="1024" ascent="960" descent="-64" />
<missing-glyph horiz-adv-x="1024" />
<glyph unicode="&#x20;" horiz-adv-x="0" d="" />
<glyph unicode="&#xe900;" glyph-name="mail" data-tags="mail, email, letter, envelope, contact" d="M859.428 752h-694.858c-63.956 0-115.81-51.882-115.81-115.81v-376.38c0-63.956 51.854-115.81 115.81-115.81h694.858c63.956 0 115.81 51.854 115.81 115.81v376.38c0 63.926-51.854 115.81-115.81 115.81zM106.666 600l202.638-152-202.638-152v304zM917.334 259.81c0-31.964-26-57.904-57.904-57.904h-694.858c-31.934 0-57.904 25.942-57.904 57.904l226.755 170.096 126.464-94.877c15.432-11.523 33.758-17.372 52.114-17.372 18.326 0 36.654 5.82 52.086 17.372l126.492 94.876 226.756-170.096zM917.334 296l-202.666 152 202.666 152v-304zM546.714 358.19c-10.104-7.586-22.090-11.581-34.714-11.581s-24.638 4.024-34.742 11.581l-370.59 278c0 31.934 25.97 57.904 57.904 57.904h694.858c31.906 0 57.904-25.97 57.904-57.904l-370.62-278z" />
<glyph unicode="&#xe901;" glyph-name="hat" data-tags="graduate, hat" d="M763.129 414.133c0 0-99.615 101.566-236.883 101.566-134.126 0-266.712-101.566-266.712-101.566l-74.473 31.088v-91.195c11.734-3.989 20.324-14.795 20.324-27.873 0-13.21-8.765-24.038-20.673-27.938l22.016-61.412h-64.99l22.215 61.935c-10.672 4.536-18.135 15.077-18.135 27.422 0 12.082 7.244 22.364 17.591 27.052v101.066l-108.311 45.166 476.566 213.912 437.236-216.6-205.775-82.605zM520.821 464.24c138.094 0 205.775-73.104 205.775-73.104v-151.632c0 0-70.394-56.859-216.6-56.859s-194.953 56.859-194.953 56.859v151.632c0 0 67.681 73.104 205.775 73.104zM518.111 215.144c95.708 0 173.301 19.412 173.301 43.321s-77.593 43.321-173.301 43.321-173.281-19.412-173.281-43.321 77.575-43.321 173.281-43.321z" />
<glyph unicode="&#xe902;" glyph-name="tree" data-tags="site map, tree, map" d="M784 96h-96c-17.696 0-32 14.304-32 32v64c0 17.696 14.304 32 32 32h64v192h-224v-192h32c17.664 0 32-14.304 32-32v-64c0-17.696-14.336-32-32-32h-96c-17.696 0-32 14.304-32 32v64c0 17.696 14.304 32 32 32h32v192h-224v-192h64c17.664 0 32-14.304 32-32v-64c0-17.696-14.336-32-32-32h-96c-17.696 0-32 14.304-32 32v64c0 17.696 14.304 32 32 32v224h256v224h-32c-17.696 0-32 14.336-32 32v64c0 17.664 14.304 32 32 32h96c17.664 0 32-14.336 32-32v-64c0-17.664-14.336-32-32-32h-32v-224h256v-224c17.664 0 32-14.304 32-32v-64c0-17.696-14.336-32-32-32z" />
<glyph unicode="&#xe903;" glyph-name="male" data-tags="male, gender, man, sex" d="M556.88 783.856h292l-0.64-295.328-100.128 100.096-94.368-94.368c21.184-37.248 33.376-80.224 33.376-126.112 0-141.376-114.56-256-256-256-141.376 0-256 114.624-256 256s114.624 256 256 256c48.8 0 94.272-13.92 133.12-37.632l93.376 94.592-100.736 102.752zM303.152 368.112c0-70.688 57.312-128 128-128s128 57.312 128 128-57.312 128-128 128-128-57.312-128-128z" />
<glyph unicode="&#xe904;" glyph-name="female" data-tags="female, gender, sex, woman" d="M577.264 376.944v-105.376h127.872v-127.872h-127.872v-127.872h-129.824v127.872h-127.84v127.872h127.84v105.76c-109.92 28.64-191.136 128.288-191.136 247.136 0 141.216 114.496 255.712 255.712 255.712 141.248 0 255.68-114.496 255.68-255.712 0-119.328-79.872-219.264-190.432-247.52zM512.016 752.304c-70.624 0-127.872-57.216-127.872-127.84 0-70.592 57.248-127.84 127.872-127.84s127.872 57.248 127.872 127.84c0 70.624-57.248 127.84-127.872 127.84z" />
<glyph unicode="&#xe905;" glyph-name="world" data-tags="world, globe, internet, network" d="M512 912c-256.278 0-464-207.722-464-464s207.722-464 464-464 464 207.722 464 464-207.722 464-464 464zM915.38 462.968h-179.494c-1.646 66.308-13.442 129.65-34.366 187.636 40.412 16.854 77.772 39.276 111.839 65.768 60.56-67.984 98.428-156.264 102.020-253.404zM495.446 44.71c-49.752 41.43-91.482 95.224-122.018 157.7 39.186 12.244 80.706 18.95 123.604 20.326v-178.086c-0.538 0-1.048 0.030-1.586 0.060zM528.494 851.29c56.458-46.998 102.529-109.954 133.692-183.384-42.688-14.578-88.040-23.050-135.248-24.548v208.022c0.568-0.030 1.048-0.060 1.556-0.090zM578.366 846.202c82.622-13.74 156.742-52.328 214.458-108.186-31.342-24.038-65.588-44.394-102.618-59.812-27.242 64.57-65.468 121.658-111.839 167.998zM497.032 851.38v-208.022c-47.208 1.526-92.59 9.968-135.248 24.548 31.162 73.432 77.234 136.386 133.692 183.384 0.538 0.030 1.018 0.060 1.556 0.090zM333.764 678.174c-36.97 15.416-71.246 35.772-102.588 59.812 57.686 55.86 131.836 94.446 214.458 108.186-46.4-46.31-84.598-103.398-111.868-167.998zM350.498 640.306c46.16-16.016 95.344-25.356 146.534-26.912v-150.426h-178.984c1.616 62.684 12.722 122.586 32.45 177.338zM497.032 433.032v-180.362c-47.208-1.436-92.86-9.16-135.878-23.020-25.924 61.726-41.222 130.488-43.108 203.382h178.984zM445.634 49.798c-74.030 12.304-141.266 44.544-195.928 91.364 29.486 20.446 61.368 37.748 95.434 50.89 26.104-54.124 60.26-102.17 100.494-142.254zM526.968 44.62v178.086c42.868-1.378 84.418-8.082 123.604-20.326-30.564-62.476-72.264-116.27-122.018-157.7-0.508 0-1.048-0.030-1.586-0.060zM678.86 192.052c34.036-13.142 65.888-30.474 95.434-50.89-54.662-46.79-121.898-79.060-195.928-91.364 40.234 40.084 74.36 88.13 100.494 142.254zM662.844 229.65c-43.048 13.86-88.698 21.584-135.878 23.020v180.362h178.984c-1.886-72.892-17.212-141.654-43.108-203.382zM526.968 462.968v150.426c51.16 1.556 100.344 10.866 146.534 26.882 19.698-54.752 30.804-114.652 32.45-177.338h-178.984zM210.67 716.372c34.066-26.492 71.426-48.914 111.81-65.768-20.924-57.986-32.72-121.328-34.366-187.636h-179.494c3.592 97.14 41.46 185.42 102.050 253.404zM108.62 433.032h179.494c1.856-76.486 17.842-148.72 44.993-213.65-37.928-14.788-73.282-34.486-105.912-57.806-70.288 69.96-114.652 165.604-118.574 271.455zM796.806 161.608c-32.63 23.29-67.984 43.018-105.942 57.806 27.182 64.93 43.137 137.164 45.023 213.65h179.494c-3.922-105.882-48.316-201.526-118.574-271.455z" />
<glyph unicode="&#xe906;" glyph-name="trophy" data-tags="trophy" d="M316.096 445.668c-22 48.19-38.762 112.096-38.762 194.333h-134.096v-50.286c0-51.333 69.667-122.571 172.857-144.048zM880.763 589.715v50.286h-134.096c0-82.238-16.762-146.143-38.762-194.333 103.19 21.477 172.857 92.714 172.857 144.048zM947.811 656.762v-67.048c0-99.523-120.477-209.523-283.905-217.381-20.952-26.714-40.333-42.429-49.762-49.762-27.762-25.143-35.096-51.333-35.096-84.857s16.762-67.048 67.048-67.048 100.571-33.523 100.571-83.81v-33.523c0-9.429-7.333-16.762-16.762-16.762h-435.81c-9.429 0-16.762 7.333-16.762 16.762v33.523c0 50.286 50.286 83.81 100.571 83.81s67.048 33.523 67.048 67.048-7.333 59.714-35.096 84.857c-9.429 7.333-28.81 23.048-49.762 49.762-163.429 7.857-283.905 117.857-283.905 217.381v67.048c0 27.762 22.523 50.286 50.286 50.286h150.857v50.286c0 46.096 37.714 83.81 83.81 83.81h301.714c46.096 0 83.81-37.714 83.81-83.81v-50.286h150.857c27.762 0 50.286-22.523 50.286-50.286z" />
<glyph unicode="&#xe907;" glyph-name="award" data-tags="award" d="M824.947 584.119c0 172.121-140.826 312.947-312.947 312.947s-312.947-140.826-312.947-312.947c0-101.707 46.942-191.681 121.267-246.446l-43.031-336.419c-3.913-15.647 3.913-31.295 15.647-39.119s27.383-7.823 43.031 0l176.034 105.62 176.034-105.62c3.913-3.913 11.736-3.913 19.559-3.913s15.647 3.913 19.559 7.823 19.559 23.472 15.647 39.119l-43.031 332.507c78.237 54.765 125.179 144.739 125.179 246.446zM277.289 584.119c0 129.092 105.62 234.711 234.711 234.711s234.711-105.62 234.711-234.711-105.62-234.711-234.711-234.711-234.711 105.62-234.711 234.711zM656.739 71.667l-125.179 74.325c-11.736 7.823-27.383 7.823-39.119 0l-125.179-74.325 27.383 222.976c35.206-15.647 74.325-23.472 117.356-23.472s82.148 7.823 117.356 23.472l27.383-222.976z" />
<glyph unicode="&#xe908;" glyph-name="folder_star" data-tags="folder_special" d="M766 212.667l-34 142 110 96-144 12-58 134-58-134-144-12 110-96-34-142 126 74zM854 682.667c46 0 84-40 84-86v-426c0-46-38-86-84-86h-684c-46 0-84 40-84 86v512c0 46 38 86 84 86h256l86-86h342z" />
<glyph unicode="&#xe909;" glyph-name="folder_shared" data-tags="folder_shared" d="M810 212.667v44c0 56-114 84-170 84s-170-28-170-84v-44h340zM640 554.667c-46 0-86-40-86-86s40-84 86-84 86 38 86 84-40 86-86 86zM854 682.667c46 0 84-40 84-86v-426c0-46-38-86-84-86h-684c-46 0-84 40-84 86v512c0 46 38 86 84 86h256l86-86h342z" />
<glyph unicode="&#xe90a;" glyph-name="building" data-tags="location_city" d="M810 277.667v86h-84v-86h84zM810 107.667v84h-84v-84h84zM554 619.667v84h-84v-84h84zM554 447.667v86h-84v-86h84zM554 277.667v86h-84v-86h84zM554 107.667v84h-84v-84h84zM298 447.667v86h-84v-86h84zM298 277.667v86h-84v-86h84zM298 107.667v84h-84v-84h84zM640 447.667h256v-426h-768v598h256v84l128 128 128-128v-256z" />
<glyph unicode="&#xe90b;" glyph-name="msg" data-tags="msg" d="M512 758.41q-106.34 0-198.135-35.445-91.795-36.355-146.33-97.25-54.535-61.805-54.535-132.695 0-58.17 37.265-110.885t104.52-90.89l45.445-26.359-14.54-49.99q-11.815-47.26-36.355-89.070 79.075 32.72 143.605 89.070l21.815 19.085 29.995-2.725q35.445-4.545 67.256-4.545 106.34 0 198.135 36.355t146.33 97.25q54.535 61.805 54.535 132.695t-54.535 132.695q-54.535 60.895-146.33 97.25-91.795 35.445-198.135 35.445v0zM977.35 493.017q0-90.89-62.715-167.235-61.805-76.345-169.051-120.88t-233.585-44.535q-36.355 0-75.436 4.545-102.705-90.89-239.035-126.335-25.45-7.27-59.077-10.905h-2.725q-7.27 0-13.635 5.455t-8.18 14.54v0q-1.82 1.82-0.91 6.36 1.82 4.545 1.82 5.455-0.91 0.91 1.82 4.545l10.905 13.635q3.635 4.545 16.36 18.179t18.179 19.995q5.455 5.455 15.45 19.995 10.905 14.54 17.27 26.359 6.36 12.725 13.635 30.9 8.18 19.085 13.635 39.99-81.8 45.445-128.154 113.61-47.26 68.165-47.26 146.33 0 89.98 62.715 167.235 61.805 76.345 169.051 120.88t233.585 44.535 233.585-44.535 169.051-120.88q62.715-77.255 62.715-167.235v0z" />
<glyph unicode="&#xe90c;" glyph-name="share" data-tags="share" d="M805.472 314.452v-131.818q0-60.566-43.642-104.208-42.75-42.75-103.316-42.75h-423.064q-60.566 0-104.208 42.75-42.75 43.642-42.75 104.208v423.064q0 60.566 42.75 103.316 43.642 43.642 104.208 43.642h129.148q7.124 0 11.578-5.346 5.346-4.454 5.346-11.578 0-13.362-13.362-16.032-39.188-13.362-67.69-30.28-5.346-1.784-8.016-1.784h-57.004q-33.845 0-57.891-24.048t-24.048-57.891v-423.064q0-33.845 24.048-57.891t57.891-24.048h423.064q33.845 0 57.891 24.048 23.156 24.048 23.156 57.891v108.662q0 9.799 9.799 15.14 14.248 6.232 27.61 18.702 8.016 8.016 17.815 3.562 10.686-4.454 10.686-14.248v0zM925.712 566.51l-195.054-195.054q-9.799-9.799-23.156-9.799-6.232 0-12.47 2.67-20.486 8.016-20.486 29.394v97.97h-81.052q-164.774 0-222.664-66.798-60.566-69.474-38.296-240.48 1.784-11.578-9.799-16.924-4.454-1.784-6.232-1.784-8.016 0-13.362 7.124t-10.686 16.032q-5.346 8.016-19.594 34.734-15.14 25.83-25.83 50.766-10.686 24.048-19.594 57.891-8.908 32.956-8.908 61.458 0 24.94 1.784 46.312t7.124 46.312q5.346 24.048 14.248 44.534t24.048 41.861q15.14 20.486 34.734 37.41 20.486 16.924 48.096 31.172 28.502 15.14 63.236 24.94 35.626 9.799 81.938 15.14 45.426 6.232 99.754 6.232h81.052v97.084q0 21.378 20.486 30.28 6.232 2.67 12.47 2.67 13.362 0 23.156-9.799l195.054-195.054q9.799-9.799 9.799-23.156t-9.799-23.156v0z" />
<glyph unicode="&#xe90d;" glyph-name="love" data-tags="love" d="M512 35.667q-13.362 0-22.264 8.908l-317.964 306.386-13.362 13.362t-28.502 33.846q-19.594 24.048-34.734 48.988-15.14 25.831-27.61 61.458-11.578 36.518-11.578 70.36 0 112.224 65.020 175.46 64.128 63.236 178.13 63.236 32.064 0 64.128-11.578 32.956-10.686 61.458-29.394t48.988-34.734q19.594-16.032 38.296-34.734 18.702 18.702 38.296 34.734 20.486 16.032 48.988 34.734t61.458 29.394q32.064 11.578 64.128 11.578 114.002 0 178.13-63.236 65.020-63.236 65.020-175.46t-116.678-228.902l-317.078-305.495q-8.908-8.908-22.264-8.908v0z" />
<glyph unicode="&#xe90e;" glyph-name="owl" data-tags="owl" d="M540.533 472.415v-0.984h-5.903v-0.984l-0.984-0.984q-1.968-0.984-2.951-0.984h-0.984l-5.903-1.968h-15.741q-5.903 0.984-10.822 1.968t-8.854 2.951q-3.935 0.984-6.887 2.951-2.951 0.984-3.935 1.968 1.968 16.725-13.774 70.835-19.676 67.884-134.784 77.722h-1.968l-1.968-1.968q-7.871-11.806 8.854-76.738 16.725-65.916 132.816-77.722 3.935-41.321 18.693-60.997 15.741-21.644 24.596-25.579l4.919-2.951 1.968 1.968q15.741 14.757 24.596 29.515t11.806 30.498q3.935 19.676 4.919 27.547 116.091 11.806 133.8 77.722 15.741 64.932 7.871 76.738l-1.968 1.968h-1.968q-115.107-9.838-135.767-77.722-15.741-55.094-13.774-71.819-0.984-0.984-2.951-1.968l-0.984-0.984h-1.968zM788.456 727.225q76.738-94.447 76.738-218.408-19.676-237.101-168.234-364.014-148.557-125.929-184.959-135.767-36.401 9.838-184.959 135.767-148.557 126.913-169.217 364.014 1.968 125.929 76.738 216.441l1.968 1.968v112.156h84.609q-27.547-17.709-54.11-42.304 120.026 61.981 253.826 58.046t236.117-58.046q-27.547 24.596-53.126 42.304h84.609v-112.156zM849.453 901.361l-221.36-0.984q-29.515 6.887-58.046 9.838t-57.062 2.951h-0.984q-28.531 0-57.062-3.935-29.515-2.951-58.046-8.854l-222.344 0.984v-152.492q-38.369-53.126-58.046-112.156-19.676-60.997-19.676-128.881v0q23.612-267.6 190.861-409.27 164.298-139.703 199.716-146.589l24.596-11.806 23.612 11.806q37.385 7.871 201.684 146.589 83.625 70.835 130.848 173.153t59.029 236.117v0q0 67.884-19.676 128.881-19.676 59.029-58.046 113.14v151.509zM687.122 368.13q-34.434-35.418-77.722-54.11-44.272-17.709-97.398-18.693-105.269 2.951-174.137 72.803-70.835 68.868-73.787 175.12l0.984 4.919-0.984 5.903q0.984 19.676 4.919 36.401 4.919 17.709 13.774 32.466t22.628 27.547q38.369 39.353 95.431 40.337 16.725 0 31.482-3.935 15.741-2.951 29.515-8.854 26.563-14.757 46.24-38.369l1.968-1.968h4.919l1.968 1.968q18.693 23.612 46.24 38.369 13.774 5.903 28.531 8.854 15.741 3.935 31.482 3.935 9.838 0 18.693-1.968 8.854-0.984 17.709-2.951t16.725-5.903q7.871-2.951 15.741-7.871 7.871-3.935 14.757-9.838 6.887-4.919 12.79-11.806 39.353-38.369 40.337-96.415v-10.822q-2.951-106.253-72.803-175.12zM733.362 729.193q-47.223 28.531-104.285 29.515-29.515 0-57.062-7.871-27.547-8.854-52.143-25.579l-1.968-1.968-4.919-2.951-5.903 2.951-0.984 1.968h-0.984q-49.191 33.45-110.188 33.45-56.078-0.984-103.301-29.515-45.256-28.531-70.835-76.738h-0.984q-20.66-54.11-21.644-114.123 0-9.838 0.984-19.676l1.968-19.676q19.676-115.107 105.269-188.894 83.625-73.787 203.651-77.722h3.935q120.026 3.935 203.651 77.722 42.304 37.385 68.868 84.609t36.401 104.285q0.984 6.887 0.984 12.79l0.984 12.79 0.984 13.774q0 60.013-20.66 114.123h-0.984q-12.79 23.612-30.498 42.304-17.709 19.676-40.337 34.434z" />
<glyph unicode="&#xe90f;" glyph-name="clock" data-tags="clock, time, schedule" d="M640.401 240.401l-184.401 184.402v247.196h112v-200.804l151.599-151.598zM512 896c-247.424 0-448-200.576-448-448s200.576-448 448-448 448 200.576 448 448-200.576 448-448 448zM512 112c-185.568 0-336 150.432-336 336s150.432 336 336 336c185.568 0 336-150.432 336-336s-150.432-336-336-336z" />
<glyph unicode="&#xe910;" glyph-name="image" data-tags="picture, photos, images" d="M621.714 557.714l-164.572-274.286-108.892 79.434-0.822 2.852-6.474 2.496 5.046-3.702-163.146-135.936v-54.858h658.286v54.858l-82.286 246.858-137.142 82.286zM320 530.286c45.422 0 82.286 36.836 82.286 82.286s-36.864 82.286-82.286 82.286-82.286-36.836-82.286-82.286 36.864-82.286 82.286-82.286zM923.428 832h-822.857c-15.14 0-27.428-12.288-27.428-27.428v-713.142c0-15.168 12.288-27.428 27.428-27.428h822.857c15.168 0 27.428 12.26 27.428 27.428v713.142c0 15.14-12.26 27.428-27.428 27.428zM896 146.286c0-15.168-12.26-27.428-27.428-27.428h-713.142c-15.14 0-27.428 12.26-27.428 27.428v603.428c0 15.14 12.288 27.428 27.428 27.428h713.142c15.168 0 27.428-12.288 27.428-27.428v-603.428z" />
<glyph unicode="&#xe911;" glyph-name="pin" data-tags="location, map-marker, pin" d="M512 928c-165.686 0-300-134.314-300-300 0-300 300-660 300-660s300 360 300 660c0 165.686-134.316 300-300 300zM512 444.25c-101.482 0-183.75 82.268-183.75 183.75s82.268 183.75 183.75 183.75 183.75-82.267 183.75-183.75-82.267-183.75-183.75-183.75zM395.75 628c0 64.203 52.047 116.25 116.25 116.25s116.25-52.047 116.25-116.25c0-64.203-52.047-116.25-116.25-116.25s-116.25 52.047-116.25 116.25z" />
<glyph unicode="&#xe912;" glyph-name="suitcase" data-tags="briefcase, portfolio, suitcase, work, job, employee" d="M891.077 664.616h-216.616v54.154c0 29.784-24.37 54.154-54.154 54.154h-216.616c-29.788 0-54.154-24.37-54.154-54.154v-54.154h-216.616c-29.784 0-54.154-24.37-54.154-54.154v-487.384c0-29.786 24.366-54.154 54.154-54.154h758.154c29.784 0 54.154 24.368 54.154 54.154v487.384c0 29.784-24.37 54.154-54.154 54.154zM403.692 718.671c0.028 0.034 0.062 0.070 0.096 0.098h216.422c0.036-0.028 0.070-0.064 0.1-0.098v-54.056h-216.618v54.056zM891.077 448h-108.308v-81.23c0-14.894-12.184-27.077-27.076-27.077h-54.154c-14.896 0-27.077 12.182-27.077 27.077v81.23h-324.923v-81.23c0-14.894-12.184-27.077-27.077-27.077h-54.154c-14.894 0-27.077 12.182-27.077 27.077v81.23h-108.308v54.154h758.154v-54.154z" />
<glyph unicode="&#xe913;" glyph-name="user" data-tags="user-tie, user, user-employee, profile, avatar, person, member, job, official" d="M332.8 716.8c0 98.97 80.23 179.2 179.2 179.2s179.2-80.23 179.2-179.2c0-98.97-80.23-179.2-179.2-179.2s-179.2 80.23-179.2 179.2zM751.006 477.867h-33.062l-185.83-377.294 69.487 347.428-89.6 89.6-89.6-89.6 69.487-347.428-185.829 377.294h-33.062c-119.396 0-119.396-80.254-119.396-179.2v-298.667h716.8v298.667c0 98.946 0 179.2-119.394 179.2z" />
<glyph unicode="&#xe914;" glyph-name="eye" data-tags="eye, views, vision, visit" d="M512 704c-178.654 0-333.506-104.034-409.6-256 76.094-151.966 230.946-256 409.6-256 178.65 0 333.5 104.034 409.6 256-76.092 151.966-230.95 256-409.6 256zM713.96 568.236c48.13-30.7 88.914-71.82 119.548-120.236-30.634-48.418-71.42-89.538-119.548-120.236-60.476-38.574-130.312-58.964-201.958-58.964-71.648 0-141.486 20.388-201.962 58.964-48.126 30.698-88.91 71.818-119.546 120.236 30.634 48.42 71.42 89.54 119.548 120.236 3.134 2 6.3 3.938 9.488 5.84-7.968-21.862-12.328-45.458-12.328-70.076 0-113.106 91.692-204.8 204.8-204.8 113.106 0 204.8 91.694 204.8 204.8 0 24.62-4.362 48.214-12.326 70.078 3.182-1.902 6.35-3.842 9.486-5.842v0zM512 524.8c0-42.416-34.384-76.8-76.8-76.8s-76.8 34.384-76.8 76.8 34.384 76.8 76.8 76.8 76.8-34.386 76.8-76.8z" />
<glyph unicode="&#xe915;" glyph-name="folder_images" data-tags="folder-images" d="M888.564 783.405c-5.018 19.712-29.389 35.795-54.208 35.795h-644.672c-24.864 0-49.235-16.083-54.208-35.795l-9.005-53.805h771.053l-8.96 53.805zM933.676 684.8h-843.36c-15.322 0-27.283-13.171-25.85-28.448l41.35-522.771c1.702-17.651 16.576-31.181 34.317-31.181h743.725c17.786 0 32.614 13.53 34.317 31.181l41.35 522.771c1.478 15.277-10.528 28.448-25.85 28.448zM621.242 533.6c23.206 0 42.022-18.816 42.022-42.022s-18.816-42.022-42.022-42.022-42.022 18.861-42.022 42.067c0 23.162 18.816 41.978 42.022 41.978zM310.42 281.6l111.373 255.987 126.65-205.005 108.595 53.939 56.582-104.922h-403.2z" />
</font>
</defs>
</svg>
